# Blender v3.3.1 OBJ File: ''
# www.blender.org
mtllib UI_Lstick2.mtl
o テキスト.001
v -0.662256 0.520544 -0.020000
v -0.662256 0.491409 -0.020000
v -0.527837 0.491409 -0.020000
v -0.527837 0.717207 -0.020000
v -0.560283 0.717207 -0.020000
v -0.560283 0.520544 -0.020000
v -0.662256 0.520544 0.020000
v -0.662256 0.491409 0.020000
v -0.527837 0.491409 0.020000
v -0.527837 0.717207 0.020000
v -0.560283 0.717207 0.020000
v -0.560283 0.520544 0.020000
v -0.662256 0.520544 0.020000
v -0.662256 0.520544 -0.020000
v -0.662256 0.491409 0.020000
v -0.662256 0.491409 -0.020000
v -0.527837 0.491409 0.020000
v -0.527837 0.491409 -0.020000
v -0.527837 0.717207 0.020000
v -0.527837 0.717207 -0.020000
v -0.560283 0.717207 0.020000
v -0.560283 0.717207 -0.020000
v -0.560283 0.520544 0.020000
v -0.560283 0.520544 -0.020000
vt 0.400000 0.000000
vt 0.800000 0.000000
vt 0.600000 0.000000
vt 1.000000 0.000000
vt 0.000000 0.000000
vt 0.200000 0.000000
vt 0.400000 0.000000
vt 0.600000 0.000000
vt 0.800000 0.000000
vt 1.000000 0.000000
vt 0.000000 0.000000
vt 0.200000 0.000000
vt 0.166667 1.000000
vt 0.000000 0.000000
vt 0.000000 1.000000
vt 0.333333 1.000000
vt 0.166667 0.000000
vt 0.500000 1.000000
vt 0.333333 0.000000
vt 0.666667 1.000000
vt 0.500000 0.000000
vt 0.833333 1.000000
vt 0.666667 0.000000
vt 1.000000 1.000000
vt 0.833333 0.000000
vt 1.000000 0.000000
vn 0.0000 -0.0000 -1.0000
vn 0.0000 0.0000 1.0000
vn -0.7071 -0.7071 0.0000
vn -0.7071 0.7071 0.0000
vn 0.7071 -0.7071 0.0000
vn 0.7071 0.7071 0.0000
usemtl マテリアル.002
s off
f 3/1/1 5/2/1 4/3/1
f 3/1/1 6/4/1 5/2/1
f 3/1/1 1/5/1 6/4/1
f 3/1/1 2/6/1 1/5/1
f 9/7/2 10/8/2 11/9/2
f 9/7/2 11/9/2 12/10/2
f 9/7/2 12/10/2 7/11/2
f 9/7/2 7/11/2 8/12/2
s 1
f 16/13/3 13/14/4 14/15/4
f 18/16/5 15/17/3 16/13/3
f 20/18/6 17/19/5 18/16/5
f 22/20/4 19/21/6 20/18/6
f 24/22/4 21/23/4 22/20/4
f 14/24/4 23/25/4 24/22/4
f 16/13/3 15/17/3 13/14/4
f 18/16/5 17/19/5 15/17/3
f 20/18/6 19/21/6 17/19/5
f 22/20/4 21/23/4 19/21/6
f 24/22/4 23/25/4 21/23/4
f 14/24/4 13/26/4 23/25/4
