# Blender v3.3.1 OBJ File: 'rantan.blend'
# www.blender.org
mtllib player_shoesR.mtl
o 右足_立方体.009
v 0.239923 -1.994106 0.315466
v 0.985743 -1.994106 -1.970140
v 0.563673 -1.994106 0.444641
v 1.367592 -1.994106 -1.817784
v 0.239923 -2.223569 0.315466
v 0.985743 -2.223569 -1.970140
v 0.563673 -2.223569 0.444641
v 1.367592 -2.223569 -1.817784
v 0.324288 -1.994105 -0.933131
v 1.380735 -1.994106 -0.511614
v 1.380735 -2.223569 -0.511614
v 0.324288 -2.223569 -0.933131
v 0.453900 -1.994106 -1.548680
v 1.610406 -1.994106 -1.087239
v 1.610406 -2.223569 -1.087239
v 0.453900 -2.223569 -1.548679
v 1.009043 -1.994106 0.007345
v 1.009043 -2.223569 0.007345
v 0.252638 -2.223569 -0.294457
v 0.252638 -1.994106 -0.294457
v 1.524620 -1.994106 -0.787836
v 1.524620 -2.223569 -0.787836
v 0.368114 -2.223569 -1.249277
v 0.368114 -1.994106 -1.249277
v 0.287864 -1.994106 -0.495813
v 1.105781 -1.994106 -0.169468
v 1.105781 -2.223569 -0.169468
v 0.287864 -2.223569 -0.495813
v 0.608909 -1.994106 -1.809962
v 1.593101 -1.994106 -1.417274
v 1.593101 -2.223569 -1.417274
v 0.608909 -2.223569 -1.809962
v 0.736619 -1.994106 -1.914273
v 1.525487 -1.994106 -1.599518
v 1.525487 -2.223569 -1.599518
v 0.736619 -2.223569 -1.914273
v 0.887224 -1.994106 0.266238
v 0.887224 -2.223569 0.266238
v 0.160357 -2.223569 -0.023778
v 0.160357 -1.994106 -0.023778
v 0.762741 -1.994106 0.367763
v 0.762741 -2.223569 0.367763
v 0.150788 -2.223569 0.123597
v 0.150788 -1.994106 0.123597
v 0.681886 -1.994106 0.413655
v 0.681886 -2.223569 0.413655
v 0.187884 -2.223569 0.216550
v 0.187884 -1.994106 0.216550
v 0.384034 -1.994106 0.424575
v 1.189990 -1.994106 -1.927353
v 0.385735 -2.223569 0.420311
v 1.189517 -2.223569 -1.926168
v 0.270901 -1.631069 0.291968
v 1.261663 -1.631070 -0.426328
v 1.386623 -1.631070 -0.666218
v 0.630840 -2.223569 -0.143556
v 0.938859 -1.631070 0.024373
v 1.022874 -1.631070 -0.129184
v 0.696823 -2.223569 -0.332641
v 1.461126 -1.631070 -0.926240
v 1.446097 -1.631070 -1.212866
v 0.281944 -1.631070 -0.237733
v 0.591355 -1.631070 -1.553904
v 0.702267 -1.631070 -1.644495
v 0.363828 -1.342009 0.233285
v 0.599666 -1.342009 -0.393276
v 0.457854 -1.342009 0.263999
v 0.653803 -1.342009 -0.384380
v 0.389660 -1.342009 -0.243071
v 0.745399 -1.342009 -0.090653
v 0.498006 -1.342009 -0.358077
v 0.738881 -1.342009 -0.280235
v 0.642075 -1.342009 0.140791
v 0.298034 -1.342009 0.048801
v 0.754899 -1.342009 -0.188072
v 0.452292 -1.342009 -0.317700
v 0.306827 -1.342009 -0.035626
v 0.684278 -1.342009 0.078457
v 0.533602 -1.342009 -0.376680
v 0.717558 -1.342009 -0.327691
v 0.565062 -1.342009 -0.386094
v 0.684598 -1.342009 -0.365764
v 0.598483 -1.342009 0.192317
v 0.299990 -1.342009 0.108442
v 0.559763 -1.342009 0.223941
v 0.320259 -1.342009 0.169836
v 0.517062 -1.342009 0.247966
v 0.345311 -1.342009 0.205258
v 0.403575 -1.342009 0.256323
v 0.624744 -1.342009 -0.391880
v 0.456734 -1.631070 -1.326988
v 0.225707 -1.631069 0.206062
v 0.312537 -1.631070 -0.412605
v 0.193491 -1.631069 0.125335
v 0.201801 -1.631069 -0.002656
v 0.918624 -1.631070 -1.693014
v 0.396058 -1.631069 0.386725
v 0.552069 -1.631069 0.404152
v 0.654733 -1.631069 0.377241
v 1.096007 -1.631070 -1.655855
v 0.344170 -1.631070 -0.792403
v 0.382231 -1.631070 -1.066966
v 0.833064 -1.631069 0.249215
v 0.724954 -1.631069 0.337386
v 1.250249 -1.631070 -1.560697
v 1.387376 -1.631070 -1.371140
v 0.306076 -1.994105 -0.714472
v 1.243258 -1.994106 -0.340541
v 1.243258 -2.223569 -0.340541
v 0.306076 -2.223569 -0.714472
v 0.336661 -1.342009 -0.136728
v 0.714406 -1.342009 0.012859
v 0.328354 -1.631070 -0.602504
v 1.142268 -1.631070 -0.277756
v 0.681886 -2.301141 0.413655
v 0.563673 -2.301141 0.444641
v 0.385735 -2.301141 0.420311
v 1.189517 -2.301141 -1.926168
v 0.985743 -2.301141 -1.970140
v 0.187884 -2.301141 0.216550
v 0.239923 -2.301141 0.315466
v 1.524620 -2.301141 -0.787836
v 1.380735 -2.301141 -0.511614
v 0.368114 -2.301141 -1.249277
v 0.324288 -2.301141 -0.933131
v 0.852511 -2.301141 -0.722373
v 1.593101 -2.301141 -1.417274
v 1.610406 -2.301141 -1.087239
v 0.608909 -2.301141 -1.809962
v 0.453900 -2.301141 -1.548679
v 1.032153 -2.301141 -1.317959
v 0.630840 -2.301141 -0.143556
v 0.252638 -2.301141 -0.294457
v 0.946367 -2.301141 -1.018556
v 1.243258 -2.301141 -0.340541
v 1.105781 -2.301141 -0.169468
v 0.306076 -2.301141 -0.714472
v 0.287864 -2.301141 -0.495813
v 0.696823 -2.301141 -0.332641
v 1.525487 -2.301141 -1.599518
v 0.736619 -2.301141 -1.914273
v 1.101005 -2.301141 -1.613618
v 1.367592 -2.301141 -1.817784
v 1.131053 -2.301141 -1.756895
v 1.009043 -2.301141 0.007345
v 0.887224 -2.301141 0.266238
v 0.160357 -2.301141 -0.023778
v 0.523790 -2.301141 0.121230
v 0.762741 -2.301141 0.367763
v 0.150788 -2.301141 0.123597
v 0.456765 -2.301141 0.245680
v 0.434885 -2.301141 0.315103
v 0.774667 -2.301141 -0.527507
vt 0.241116 0.482541
vt 0.224816 0.169937
vt 0.232761 0.166835
vt 0.094879 0.631891
vt 0.154892 0.696061
vt 0.094890 0.696052
vt 0.842389 0.385344
vt 0.859652 0.464510
vt 0.839474 0.463432
vt 0.830265 0.559415
vt 0.776887 0.502657
vt 0.836576 0.505845
vt 0.650414 0.580915
vt 0.692700 0.643297
vt 0.645751 0.640383
vt 0.154889 0.577410
vt 0.094907 0.525428
vt 0.154909 0.525438
vt 0.843054 0.241597
vt 0.782869 0.192097
vt 0.842558 0.195285
vt 0.850443 0.560492
vt 0.365805 0.775516
vt 0.305950 0.718428
vt 0.365787 0.718194
vt 0.461195 0.639229
vt 0.539492 0.561446
vt 0.461211 0.689012
vt 0.783623 0.308355
vt 0.843312 0.311543
vt 0.696940 0.583696
vt 0.725795 0.566392
vt 0.724361 0.586540
vt 0.369386 0.932563
vt 0.307178 0.856292
vt 0.367015 0.856058
vt 0.270601 0.421140
vt 0.241558 0.161275
vt 0.684158 0.738379
vt 0.659532 0.814874
vt 0.643385 0.735848
vt 0.365064 0.608603
vt 0.303897 0.535354
vt 0.363733 0.535120
vt 0.313853 0.999921
vt 0.289321 0.932876
vt 0.309549 0.932797
vt 0.842090 0.103175
vt 0.783623 0.030752
vt 0.843312 0.033940
vt 0.686942 0.088739
vt 0.610193 0.049039
vt 0.610048 0.030857
vt 0.305969 0.775750
vt 0.154882 0.631900
vt 0.175177 0.696065
vt 0.783366 0.238409
vt 0.013068 0.270682
vt 0.177103 0.146365
vt 0.000000 0.339330
vt 0.305932 0.661106
vt 0.305228 0.608837
vt 0.540292 0.562760
vt 0.592609 0.458580
vt 0.592609 0.565057
vt 0.842061 0.148973
vt 0.782401 0.099987
vt 0.782701 0.382157
vt 0.175174 0.577413
vt 0.373689 0.999687
vt 0.183790 0.158146
vt 0.010833 0.412920
vt 0.779785 0.460244
vt 0.195381 0.525431
vt 0.215665 0.630874
vt 0.195381 0.630876
vt 0.154909 0.735051
vt 0.094907 0.735042
vt 0.460583 0.593835
vt 0.539144 0.542941
vt 0.783217 0.000000
vt 0.842906 0.003188
vt 0.215665 0.736319
vt 0.195381 0.736321
vt 0.304534 0.494736
vt 0.364370 0.494502
vt 0.039730 0.206142
vt 0.170714 0.122943
vt 0.679737 0.816261
vt 0.671240 0.815465
vt 0.365030 0.472360
vt 0.305193 0.472594
vt 0.611862 0.580641
vt 0.651847 0.560767
vt 0.747856 0.589243
vt 0.720121 0.646141
vt 0.862736 0.196363
vt 0.306599 0.447857
vt 0.366436 0.447623
vt 0.283669 0.352491
vt 0.252457 0.149883
vt 0.707973 0.740849
vt 0.690792 0.817263
vt 0.286371 0.447936
vt 0.285704 0.661185
vt 0.687349 0.168734
vt 0.608938 0.104168
vt 0.609859 0.074108
vt 0.728377 0.743196
vt 0.705495 0.819059
vt 0.749289 0.569095
vt 0.159463 0.525428
vt 0.209452 0.172709
vt 0.216000 0.172531
vt 0.284965 0.472673
vt 0.647728 0.814783
vt 0.610271 0.735725
vt 0.862268 0.104253
vt 0.592609 0.671535
vt 0.461775 0.454029
vt 0.539594 0.481374
vt 0.460553 0.475513
vt 0.283669 0.535433
vt 0.539243 0.493023
vt 0.459981 0.494742
vt 0.863490 0.312620
vt 0.112486 0.519649
vt 0.201722 0.171397
vt 0.687780 0.208954
vt 0.607622 0.129606
vt 0.863233 0.242674
vt 0.539045 0.505667
vt 0.459428 0.530017
vt 0.856754 0.506923
vt 0.607622 0.640242
vt 0.175166 0.631903
vt 0.029913 0.452475
vt 0.070118 0.498417
vt 0.214494 0.508279
vt 0.193272 0.167257
vt 0.539018 0.523268
vt 0.688003 0.028610
vt 0.609730 0.019407
vt 0.000009 0.694299
vt 0.676673 0.484970
vt 0.682154 0.438447
vt 0.000000 0.638577
vt 0.688003 0.269700
vt 0.000006 0.591213
vt 0.094887 0.577354
vt 0.000024 0.546118
vt 0.687651 0.001903
vt 0.687202 0.333795
vt 0.462277 0.808742
vt 0.365768 0.660872
vt 0.468074 0.933480
vt 0.464337 0.875185
vt 0.686917 0.128513
vt 0.684670 0.401612
vt 0.461227 0.738794
vt 0.782372 0.145785
vt 0.285741 0.775829
vt 0.540292 0.588102
vt 0.285722 0.718507
vt 0.452399 0.046762
vt 0.504285 0.003623
vt 0.562885 0.035610
vt 0.447906 0.326878
vt 0.584697 0.368221
vt 0.453439 0.381469
vt 0.445645 0.164223
vt 0.607622 0.229316
vt 0.445645 0.245664
vt 0.909989 0.666970
vt 0.835306 0.769630
vt 0.835306 0.667311
vt 0.595868 0.311943
vt 0.587475 0.071030
vt 0.607622 0.147874
vt 0.449632 0.084943
vt 0.798585 0.757673
vt 0.798585 0.671529
vt 0.779604 0.739656
vt 0.779604 0.670116
vt 0.760623 0.717432
vt 0.749289 0.671858
vt 0.760623 0.626284
vt 0.779604 0.600576
vt 0.798585 0.585386
vt 0.341912 0.057914
vt 0.311790 0.098855
vt 0.283669 0.180572
vt 0.299943 0.341812
vt 0.835306 0.564991
vt 0.283669 0.262013
vt 0.322180 0.394717
vt 0.397324 0.014419
vt 0.344417 0.447623
vt 0.458972 0.436060
vt 0.573526 0.424498
vt 0.175194 0.632967
vt 0.195381 0.741216
vt 0.175194 0.740506
vt 0.284306 0.494816
vt 0.286950 0.856371
vt 0.863490 0.035017
vt 0.175194 0.525428
vt 0.195381 0.633677
vt 0.862567 0.386422
vt 0.698373 0.563548
vt 0.175194 0.735054
vt 0.770576 0.556227
vt 0.293624 1.000000
vt 0.540292 0.447623
vt 0.175194 0.525441
vt 0.215665 0.525429
vt 0.170827 0.097618
vt 0.613295 0.560493
vt 0.743616 0.648844
vt 0.862239 0.150051
vt 0.749289 0.747071
vt 0.540292 0.677896
vt 0.540292 0.468876
vt 0.284999 0.608916
vt 0.000024 0.728161
vt 0.236950 0.000000
vt 0.251235 0.000816
vt 0.267605 0.012735
vt 0.262117 0.005905
vt 0.274969 0.021332
vt 0.211445 0.012514
vt 0.281719 0.036729
vt 0.221957 0.005403
vt 0.192073 0.035721
vt 0.202151 0.021499
vt 0.283669 0.052067
vt 0.176376 0.070261
vt 0.182616 0.052699
vt 0.278120 0.100737
vt 0.283426 0.074027
vt 0.266923 0.129296
vt 0.449894 0.000000
vt 0.909989 0.773448
vt 0.909989 0.560492
vt 0.863084 0.004266
vt 0.195381 0.526138
vn 0.0722 -0.9678 0.2412
vn -0.8102 0.0000 0.5861
vn 0.8600 0.0000 0.5102
vn 0.2188 0.0000 0.9758
vn 0.6035 0.0193 -0.7971
vn -0.2109 0.0000 0.9775
vn 0.9965 0.0000 0.0830
vn -0.7795 0.0000 -0.6264
vn -0.6904 -0.4641 -0.5548
vn 0.9613 0.0000 0.2754
vn 0.8850 0.0000 -0.4656
vn -0.9613 0.0000 -0.2754
vn 0.1449 -0.9498 0.2772
vn 0.5651 -0.3514 -0.7464
vn -0.9048 0.0000 -0.4258
vn -0.9986 0.0000 0.0524
vn 0.9465 0.0000 0.3227
vn 0.9824 -0.1561 0.1023
vn -0.8869 0.0000 -0.4620
vn 0.9905 0.0000 0.1373
vn -0.4696 -0.8726 -0.1345
vn -0.8773 0.0000 -0.4800
vn 0.0000 1.0000 0.0000
vn 0.9850 0.0000 0.1723
vn -0.3494 -0.9368 0.0183
vn 0.6326 0.0000 0.7745
vn -0.3706 0.0000 0.9288
vn -0.9376 0.0000 0.3478
vn -0.7245 -0.5639 -0.3964
vn 0.9979 0.0000 0.0648
vn -0.6320 0.0000 -0.7749
vn -0.5751 -0.7613 -0.2996
vn 0.7799 -0.3553 -0.5153
vn -0.4936 0.0000 -0.8697
vn 0.1355 0.0000 -0.9908
vn 0.9288 -0.0000 -0.3707
vn -0.2536 0.0000 -0.9673
vn 0.2843 -0.9031 0.3218
vn 0.7731 -0.3214 -0.5468
vn 0.7179 -0.5972 0.3578
vn 0.8911 -0.3455 -0.2942
vn 0.9288 0.0000 -0.3706
vn -0.0119 -0.9767 0.2143
vn 0.1014 -0.4071 -0.9077
vn -0.2219 -0.4842 -0.8464
vn -0.4189 -0.5290 -0.7380
vn -0.0526 -0.9776 0.2039
vn 0.4576 -0.8019 0.3841
vn -0.5262 -0.5540 -0.6452
vn -0.5199 0.0000 0.8542
vn 0.1110 0.0193 -0.9936
vn -0.1939 -0.9709 0.1403
vn 0.0474 -0.9724 0.2285
vn -0.2583 -0.9613 0.0958
vn -0.7213 -0.6038 -0.3394
vn 0.9500 -0.3107 -0.0312
vn 0.9390 -0.1258 0.3201
vn -0.8942 -0.1531 -0.4207
vn -0.8126 -0.4988 0.3015
vn 0.1789 -0.5759 0.7977
vn -0.6709 -0.5606 0.4854
vn -0.6267 -0.1295 -0.7684
vn 0.9849 -0.1069 0.1365
vn -0.4155 -0.6113 0.6735
vn -0.4899 -0.1232 -0.8631
vn -0.2519 -0.1152 -0.9609
vn 0.1104 -0.1067 -0.9881
vn -0.1613 -0.6175 0.7699
vn 0.9911 -0.1169 0.0643
vn 0.9928 -0.0864 0.0827
vn 0.9235 -0.1069 -0.3685
vn 0.9468 -0.1731 0.2713
vn 0.8801 -0.1051 -0.4630
vn -0.8725 -0.1794 -0.4545
vn -0.8679 -0.1455 -0.4749
vn -0.9161 -0.3980 0.0480
vn -0.9273 -0.2635 -0.2657
vn 0.9795 -0.1058 0.1714
vn 0.6004 -0.1026 -0.7931
vn 0.8195 -0.3033 0.4862
vn -0.7749 -0.1079 -0.6228
vn 0.5622 -0.4583 0.6884
vn 0.9052 -0.3305 0.2671
vn -0.6491 -0.5536 -0.5217
vn 0.0000 -1.0000 0.0000
vn 0.3706 0.0000 -0.9288
vn 0.5838 0.0000 -0.8119
vn 0.1958 -0.9509 0.2398
vn -0.2050 0.0055 0.9787
vn -0.7219 -0.6074 -0.3315
vn 0.3996 -0.8855 0.2370
vn 0.4752 -0.3192 -0.8199
vn 0.9649 -0.2011 0.1688
vn -0.3741 -0.9251 0.0650
vn -0.2725 -0.9543 0.1224
vn -0.7024 -0.5296 -0.4756
vn -0.5125 -0.8572 -0.0500
vn 0.8307 -0.3449 -0.4370
vn 0.6595 -0.7276 0.1890
vn 0.8766 -0.3306 -0.3498
vn 0.9506 -0.3001 0.0792
vn 0.9377 -0.3419 0.0609
vn -0.0434 -0.9773 0.2073
vn 0.1277 -0.4106 -0.9028
vn -0.2287 -0.4841 -0.8446
vn -0.4161 -0.5290 -0.7396
vn -0.1128 -0.9767 0.1828
vn 0.8509 -0.5120 0.1180
vn -0.5266 -0.5540 -0.6448
vn -0.5250 0.0055 0.8511
vn -0.1189 -0.9732 0.1967
vn 0.0513 -0.9721 0.2288
vn -0.1873 -0.9688 0.1622
vn -0.6117 -0.5983 -0.5175
vn 0.8870 -0.3491 0.3024
vn 0.9837 -0.1603 0.0819
vn -0.6350 -0.7488 -0.1901
usemtl マテリアル.001
s off
f 63/1/1 81/2/1 79/3/1
f 4/4/2 35/5/2 34/6/2
f 16/7/3 129/8/3 32/9/3
f 6/10/4 33/11/4 36/12/4
f 51/13/5 1/14/5 49/15/5
f 52/16/6 2/17/6 6/18/6
f 12/19/7 107/20/7 110/21/7
f 36/12/4 119/22/4 6/10/4
f 10/23/8 109/24/8 108/25/8
f 58/26/9 112/27/9 114/28/9
f 16/7/10 24/29/10 23/30/10
f 5/31/11 120/32/11 47/33/11
f 14/34/12 22/35/12 21/36/12
f 91/37/13 79/3/13 71/38/13
f 53/39/14 89/40/14 97/41/14
f 17/42/15 38/43/15 37/44/15
f 31/45/16 128/46/16 15/47/16
f 19/48/17 40/49/17 39/50/17
f 62/51/18 77/52/18 74/53/18
f 21/36/19 11/54/19 10/23/19
f 8/55/2 140/56/2 35/5/2
f 12/19/20 24/29/20 9/57/20
f 55/58/21 72/59/21 60/60/21
f 17/42/22 27/61/22 18/62/22
f 59/63/23 19/64/23 56/65/23
f 28/66/24 20/67/24 19/48/24
f 32/9/3 13/68/3 16/7/3
f 6/18/6 118/69/6 52/16/6
f 30/70/16 15/47/16 14/34/16
f 60/60/25 80/71/25 61/72/25
f 36/12/26 29/73/26 32/9/26
f 19/74/27 132/75/27 56/76/27
f 34/6/28 31/77/28 30/78/28
f 57/79/29 78/80/29 58/26/29
f 39/50/30 44/81/30 43/82/30
f 56/76/27 145/83/27 18/84/27
f 37/44/31 42/85/31 41/86/31
f 54/87/32 75/88/32 55/58/32
f 53/39/33 88/89/33 65/90/33
f 45/91/34 42/85/34 46/92/34
f 7/93/35 117/94/35 51/13/35
f 43/95/36 48/96/36 47/33/36
f 47/33/11 1/14/11 5/31/11
f 28/66/7 137/97/7 110/21/7
f 45/91/37 7/98/37 3/99/37
f 102/100/38 71/38/38 76/101/38
f 92/102/39 86/103/39 88/89/39
f 46/92/37 116/104/37 7/98/37
f 109/24/8 136/105/8 27/61/8
f 113/106/40 69/107/40 111/108/40
f 94/109/41 84/110/41 86/103/41
f 47/33/42 150/111/42 43/95/42
f 96/112/43 90/113/43 66/114/43
f 42/85/34 115/115/34 46/92/34
f 97/41/44 67/116/44 98/117/44
f 39/50/17 133/118/17 19/48/17
f 18/119/23 59/63/23 56/65/23
f 98/120/45 87/121/45 99/122/45
f 18/62/15 146/123/15 38/43/15
f 99/122/46 85/124/46 104/125/46
f 12/19/20 124/126/20 23/30/20
f 100/127/47 68/128/47 90/113/47
f 101/129/48 76/130/48 69/107/48
f 110/21/7 125/131/7 12/19/7
f 104/125/49 83/132/49 103/133/49
f 32/9/26 141/134/26 36/12/26
f 4/4/50 52/16/50 8/55/50
f 3/135/51 51/13/51 49/15/51
f 52/16/50 143/136/50 8/55/50
f 106/137/52 68/128/52 105/138/52
f 64/139/53 66/114/53 81/2/53
f 61/72/54 82/140/54 106/137/54
f 103/133/55 73/141/55 57/79/55
f 95/142/56 74/53/56 84/143/56
f 40/49/57 62/51/57 95/142/57
f 37/44/58 57/79/58 17/42/58
f 30/78/59 106/144/59 34/6/59
f 33/11/60 96/145/60 64/146/60
f 34/6/61 105/147/61 4/4/61
f 41/86/62 103/133/62 37/44/62
f 9/57/63 102/148/63 101/129/63
f 4/4/64 100/149/64 50/150/64
f 45/91/65 104/125/65 41/86/65
f 3/99/66 99/122/66 45/91/66
f 49/15/67 98/117/67 3/135/67
f 2/17/68 100/149/68 96/151/68
f 44/81/69 95/142/69 94/152/69
f 107/20/70 101/129/70 113/106/70
f 48/96/71 94/109/71 92/102/71
f 24/29/72 91/153/72 102/148/72
f 1/14/73 92/102/73 53/39/73
f 10/23/74 55/154/74 21/36/74
f 17/42/75 58/26/75 26/155/75
f 14/34/76 61/156/76 30/70/76
f 21/36/77 60/157/77 14/34/77
f 20/67/78 93/158/78 62/51/78
f 1/14/79 97/41/79 49/15/79
f 13/68/80 63/159/80 91/153/80
f 26/155/81 114/28/81 108/25/81
f 29/73/82 64/146/82 63/159/82
f 108/25/81 54/160/81 10/23/81
f 25/161/70 113/106/70 93/158/70
f 22/35/19 123/162/19 11/54/19
f 93/158/83 111/108/83 77/52/83
f 114/28/84 70/163/84 54/160/84
f 108/25/8 27/61/8 26/155/8
f 11/54/8 135/164/8 109/24/8
f 110/21/7 25/161/7 28/66/7
f 90/113/85 82/140/85 81/2/85
f 144/165/23 119/166/23 141/167/23
f 126/168/23 137/169/23 153/170/23
f 131/171/23 124/172/23 134/173/23
f 132/174/23 147/175/23 148/176/23
f 134/173/23 125/177/23 126/168/23
f 131/171/23 129/178/23 130/179/23
f 142/180/23 141/167/23 129/178/23
f 148/176/23 150/181/23 151/182/23
f 151/182/23 120/183/23 152/184/23
f 152/184/23 121/185/23 117/186/23
f 116/187/23 152/184/23 117/186/23
f 115/188/23 151/182/23 152/184/23
f 149/189/23 148/176/23 151/182/23
f 140/190/23 142/180/23 127/191/23
f 127/191/23 131/171/23 128/192/23
f 123/193/23 134/173/23 126/168/23
f 146/194/23 132/174/23 148/176/23
f 128/192/23 134/173/23 122/195/23
f 135/196/23 126/168/23 153/170/23
f 143/197/23 144/165/23 140/190/23
f 136/198/23 153/170/23 139/199/23
f 153/170/23 138/200/23 139/199/23
f 59/201/86 138/202/86 28/203/86
f 38/43/31 149/204/31 42/85/31
f 15/47/12 122/205/12 22/35/12
f 43/82/30 147/206/30 39/50/30
f 27/207/86 139/208/86 59/201/86
f 23/30/10 130/209/10 16/7/10
f 51/13/87 121/210/87 5/31/87
f 35/5/28 127/211/28 31/77/28
f 63/1/88 64/139/88 81/2/88
f 4/4/2 8/55/2 35/5/2
f 16/7/3 130/209/3 129/8/3
f 6/10/4 2/212/4 33/11/4
f 51/13/87 5/31/87 1/14/87
f 52/16/89 50/150/89 2/17/89
f 12/19/7 9/57/7 107/20/7
f 36/12/4 141/134/4 119/22/4
f 10/23/8 11/54/8 109/24/8
f 58/26/90 78/80/90 112/27/90
f 16/7/10 13/68/10 24/29/10
f 5/31/11 121/210/11 120/32/11
f 14/34/12 15/47/12 22/35/12
f 91/37/91 63/1/91 79/3/91
f 53/39/92 65/90/92 89/40/92
f 17/42/15 18/62/15 38/43/15
f 31/45/16 127/213/16 128/46/16
f 19/48/17 20/67/17 40/49/17
f 62/51/93 93/158/93 77/52/93
f 21/36/19 22/35/19 11/54/19
f 8/55/2 143/136/2 140/56/2
f 12/19/20 23/30/20 24/29/20
f 55/58/94 75/88/94 72/59/94
f 17/42/22 26/155/22 27/61/22
f 59/63/23 28/214/23 19/64/23
f 28/66/24 25/161/24 20/67/24
f 32/9/3 29/73/3 13/68/3
f 6/18/6 119/215/6 118/69/6
f 30/70/16 31/45/16 15/47/16
f 60/60/95 72/59/95 80/71/95
f 36/12/26 33/11/26 29/73/26
f 19/74/27 133/216/27 132/75/27
f 34/6/28 35/5/28 31/77/28
f 57/79/96 73/141/96 78/80/96
f 39/50/30 40/49/30 44/81/30
f 56/76/27 132/75/27 145/83/27
f 37/44/31 38/43/31 42/85/31
f 54/87/97 70/217/97 75/88/97
f 53/39/98 92/102/98 88/89/98
f 45/91/34 41/86/34 42/85/34
f 7/93/35 116/218/35 117/94/35
f 43/95/36 44/219/36 48/96/36
f 47/33/11 48/96/11 1/14/11
f 28/66/7 138/220/7 137/97/7
f 45/91/37 46/92/37 7/98/37
f 102/100/99 91/37/99 71/38/99
f 92/102/100 94/109/100 86/103/100
f 46/92/37 115/115/37 116/104/37
f 109/24/8 135/164/8 136/105/8
f 113/106/101 101/129/101 69/107/101
f 94/109/102 95/221/102 84/110/102
f 47/33/36 120/32/36 150/111/36
f 96/112/103 100/127/103 90/113/103
f 42/85/34 149/204/34 115/115/34
f 97/41/104 89/40/104 67/116/104
f 39/50/17 147/206/17 133/118/17
f 18/119/23 27/222/23 59/63/23
f 98/120/105 67/223/105 87/121/105
f 18/62/15 145/224/15 146/123/15
f 99/122/106 87/121/106 85/124/106
f 12/19/20 125/131/20 124/126/20
f 100/127/107 105/138/107 68/128/107
f 101/129/108 102/148/108 76/130/108
f 110/21/7 137/97/7 125/131/7
f 104/125/109 85/124/109 83/132/109
f 32/9/26 129/8/26 141/134/26
f 4/4/110 50/150/110 52/16/110
f 3/135/35 7/93/35 51/13/35
f 52/16/50 118/69/50 143/136/50
f 106/137/111 82/140/111 68/128/111
f 64/139/112 96/112/112 66/114/112
f 61/72/113 80/71/113 82/140/113
f 103/133/114 83/132/114 73/141/114
f 95/142/115 62/51/115 74/53/115
f 40/49/57 20/67/57 62/51/57
f 37/44/58 103/133/58 57/79/58
f 30/78/59 61/225/59 106/144/59
f 33/11/60 2/212/60 96/145/60
f 34/6/61 106/144/61 105/147/61
f 41/86/62 104/125/62 103/133/62
f 9/57/63 24/29/63 102/148/63
f 4/4/64 105/147/64 100/149/64
f 45/91/65 99/122/65 104/125/65
f 3/99/66 98/120/66 99/122/66
f 49/15/67 97/41/67 98/117/67
f 2/17/68 50/150/68 100/149/68
f 44/81/69 40/49/69 95/142/69
f 107/20/70 9/57/70 101/129/70
f 48/96/71 44/219/71 94/109/71
f 24/29/72 13/68/72 91/153/72
f 1/14/73 48/96/73 92/102/73
f 10/23/74 54/160/74 55/154/74
f 17/42/75 57/79/75 58/26/75
f 14/34/76 60/157/76 61/156/76
f 21/36/77 55/154/77 60/157/77
f 20/67/78 25/161/78 93/158/78
f 1/14/79 53/39/79 97/41/79
f 13/68/80 29/73/80 63/159/80
f 26/155/81 58/26/81 114/28/81
f 29/73/82 33/11/82 64/146/82
f 108/25/81 114/28/81 54/160/81
f 25/161/70 107/20/70 113/106/70
f 22/35/19 122/205/19 123/162/19
f 93/158/116 113/106/116 111/108/116
f 114/28/117 112/27/117 70/163/117
f 108/25/8 109/24/8 27/61/8
f 11/54/8 123/162/8 135/164/8
f 110/21/7 107/20/7 25/161/7
f 67/226/85 89/227/85 88/228/85
f 89/227/85 65/229/85 88/228/85
f 88/228/85 86/230/85 85/231/85
f 86/230/85 84/232/85 85/231/85
f 85/231/85 87/233/85 88/228/85
f 87/233/85 67/226/85 88/228/85
f 73/234/85 83/235/85 74/236/85
f 83/235/85 85/231/85 84/232/85
f 74/236/85 83/235/85 84/232/85
f 112/237/85 78/238/85 111/239/85
f 78/238/85 73/234/85 77/240/85
f 77/240/85 73/234/85 74/236/85
f 75/88/85 70/217/85 69/241/85
f 70/217/85 112/237/85 111/239/85
f 75/88/85 69/241/85 76/101/85
f 80/71/85 72/59/85 81/2/85
f 72/59/85 75/88/85 76/101/85
f 68/128/85 82/140/85 90/113/85
f 82/140/85 80/71/85 81/2/85
f 90/113/85 81/2/85 66/114/85
f 79/3/85 81/2/85 72/59/85
f 76/101/85 71/38/85 72/59/85
f 71/38/85 79/3/85 72/59/85
f 111/239/85 69/241/85 70/217/85
f 77/240/85 111/239/85 78/238/85
f 144/165/23 118/242/23 119/166/23
f 126/168/23 125/177/23 137/169/23
f 131/171/23 130/179/23 124/172/23
f 132/174/23 133/243/23 147/175/23
f 134/173/23 124/172/23 125/177/23
f 131/171/23 142/180/23 129/178/23
f 142/180/23 144/165/23 141/167/23
f 148/176/23 147/175/23 150/181/23
f 151/182/23 150/181/23 120/183/23
f 152/184/23 120/183/23 121/185/23
f 116/187/23 115/188/23 152/184/23
f 115/188/23 149/189/23 151/182/23
f 149/189/23 146/194/23 148/176/23
f 140/190/23 144/165/23 142/180/23
f 127/191/23 142/180/23 131/171/23
f 123/193/23 122/195/23 134/173/23
f 146/194/23 145/244/23 132/174/23
f 128/192/23 131/171/23 134/173/23
f 135/196/23 123/193/23 126/168/23
f 143/197/23 118/242/23 144/165/23
f 136/198/23 135/196/23 153/170/23
f 153/170/23 137/169/23 138/200/23
f 59/201/86 139/208/86 138/202/86
f 38/43/31 146/123/31 149/204/31
f 15/47/12 128/46/12 122/205/12
f 43/82/30 150/245/30 147/206/30
f 27/207/86 136/246/86 139/208/86
f 23/30/10 124/126/10 130/209/10
f 51/13/87 117/94/87 121/210/87
f 35/5/28 140/56/28 127/211/28
