# Blender v3.5.1 OBJ File: '無題.blend'
# www.blender.org
mtllib kabe.mtl
o 立方体
v 17.285295 -1.639003 -13.187654
v 17.285295 10.238363 -13.187654
v 17.285295 -1.639003 -12.772953
v 17.285295 10.238363 -12.772953
v -16.062445 -1.639003 -13.187654
v -16.062445 10.238363 -13.187654
v -16.062445 -1.639003 -12.772953
v -16.062445 10.238363 -12.772953
vt 0.942514 0.892997
vt 0.916205 0.866688
vt 0.942514 0.866688
vt 0.954273 0.423842
vt 0.046778 0.031972
vt 0.954273 0.031972
vt 0.889897 0.919306
vt 0.863588 0.892997
vt 0.889897 0.892997
vt 0.046977 0.423842
vt 0.954273 0.031972
vt 0.046977 0.031972
vt 0.916205 0.892997
vt 0.889897 0.919306
vt 0.889897 0.892997
vt 0.889897 0.919306
vt 0.863588 0.945615
vt 0.863588 0.919306
vt 0.916205 0.892997
vt 0.046778 0.423842
vt 0.863588 0.919306
vt 0.954273 0.423842
vt 0.916205 0.919306
vt 0.889897 0.945615
vn 1.0000 0.0000 0.0000
vn 0.0000 0.0000 1.0000
vn -1.0000 0.0000 0.0000
vn 0.0000 0.0000 -1.0000
vn 0.0000 -1.0000 0.0000
vn 0.0000 1.0000 0.0000
usemtl マテリアル.006
s off
f 2/1/1 3/2/1 1/3/1
f 4/4/2 7/5/2 3/6/2
f 8/7/3 5/8/3 7/9/3
f 6/10/4 1/11/4 5/12/4
f 7/13/5 1/14/5 3/15/5
f 4/16/6 6/17/6 8/18/6
f 2/1/1 4/19/1 3/2/1
f 4/4/2 8/20/2 7/5/2
f 8/7/3 6/21/3 5/8/3
f 6/10/4 2/22/4 1/11/4
f 7/13/5 5/23/5 1/14/5
f 4/16/6 2/24/6 6/17/6
